{
  "accessors": [
    {
      "bufferView": 2,
      "componentType": 5126,
      "count": 2268,
      "max": [
        1.5321300029754639,
        -1.2134000062942505,
        -0.949429988861084
      ],
      "min": [
        -1.5321300029754639,
        -2.606760025024414,
        -2.544420003890991
      ],
      "type": "VEC3"
    },
    {
      "bufferView": 2,
      "byteOffset": 27216,
      "componentType": 5126,
      "count": 2268,
      "max": [
        1.0,
        1.0,
        0.28016629815101624
      ],
      "min": [
        -1.0,
        -1.0,
        -0.9993690848350525
      ],
      "type": "VEC3"
    },
    {
      "bufferView": 1,
      "componentType": 5126,
      "count": 2268,
      "max": [
        0.46410998702049255,
        0.7871500253677368
      ],
      "min": [
        0.016790000721812248,
        0.3562900125980377
      ],
      "type": "VEC2"
    },
    {
      "bufferView": 0,
      "componentType": 5125,
      "count": 13056,
      "type": "SCALAR"
    },
    {
      "bufferView": 2,
      "byteOffset": 54432,
      "componentType": 5126,
      "count": 14243,
      "max": [
        3.412909984588623,
        2.9497599601745605,
        2.4371399879455566
      ],
      "min": [
        -3.412909984588623,
        -3.8506200313568115,
        -7.571730136871338
      ],
      "type": "VEC3"
    },
    {
      "bufferView": 2,
      "byteOffset": 225348,
      "componentType": 5126,
      "count": 14243,
      "max": [
        1.0,
        1.0,
        1.0
      ],
      "min": [
        -1.0,
        -1.0,
        -1.0
      ],
      "type": "VEC3"
    },
    {
      "bufferView": 1,
      "byteOffset": 18144,
      "componentType": 5126,
      "count": 14243,
      "max": [
        0.9480100274085999,
        0.978410005569458
      ],
      "min": [
        0.016790000721812248,
        0.030700000002980232
      ],
      "type": "VEC2"
    },
    {
      "bufferView": 0,
      "byteOffset": 52224,
      "componentType": 5125,
      "count": 84048,
      "type": "SCALAR"
    },
    {
      "bufferView": 2,
      "byteOffset": 396264,
      "componentType": 5126,
      "count": 1888,
      "max": [
        2.6584699153900146,
        0.8797199726104736,
        4.56496000289917
      ],
      "min": [
        -2.6584699153900146,
        -1.1298500299453735,
        -0.9211699962615967
      ],
      "type": "VEC3"
    },
    {
      "bufferView": 2,
      "byteOffset": 418920,
      "componentType": 5126,
      "count": 1888,
      "max": [
        0.999922513961792,
        0.999999463558197,
        0.999208927154541
      ],
      "min": [
        -0.999922513961792,
        -0.999999463558197,
        -1.0
      ],
      "type": "VEC3"
    },
    {
      "bufferView": 1,
      "byteOffset": 132088,
      "componentType": 5126,
      "count": 1888,
      "max": [
        0.9737499952316284,
        0.9263499975204468
      ],
      "min": [
        0.0007800000021234155,
        0.00011000000085914508
      ],
      "type": "VEC2"
    },
    {
      "bufferView": 0,
      "byteOffset": 388416,
      "componentType": 5125,
      "count": 10992,
      "type": "SCALAR"
    },
    {
      "bufferView": 2,
      "byteOffset": 441576,
      "componentType": 5126,
      "count": 1120,
      "max": [
        0.8586900234222412,
        0.5972899794578552,
        4.909530162811279
      ],
      "min": [
        -0.8586900234222412,
        -0.8056399822235107,
        3.925570011138916
      ],
      "type": "VEC3"
    },
    {
      "bufferView": 2,
      "byteOffset": 455016,
      "componentType": 5126,
      "count": 1120,
      "max": [
        0.991576611995697,
        0.999379575252533,
        0.996315598487854
      ],
      "min": [
        -0.991576611995697,
        -0.9993711113929749,
        -0.9942740201950073
      ],
      "type": "VEC3"
    },
    {
      "bufferView": 1,
      "byteOffset": 147192,
      "componentType": 5126,
      "count": 1120,
      "max": [
        0.42318999767303467,
        0.8883299827575684
      ],
      "min": [
        0.03723999857902527,
        0.42416998744010925
      ],
      "type": "VEC2"
    },
    {
      "bufferView": 0,
      "byteOffset": 432384,
      "componentType": 5125,
      "count": 6720,
      "type": "SCALAR"
    },
    {
      "bufferView": 2,
      "byteOffset": 468456,
      "componentType": 5126,
      "count": 7244,
      "max": [
        3.087709903717041,
        2.9717299938201904,
        4.3978400230407715
      ],
      "min": [
        -3.087709903717041,
        -2.9717299938201904,
        -4.415019989013672
      ],
      "type": "VEC3"
    },
    {
      "bufferView": 2,
      "byteOffset": 555384,
      "componentType": 5126,
      "count": 7244,
      "max": [
        0.9993448853492737,
        0.9998783469200134,
        0.9999956488609314
      ],
      "min": [
        -0.9993448853492737,
        -0.9998783469200134,
        -0.999999463558197
      ],
      "type": "VEC3"
    },
    {
      "bufferView": 1,
      "byteOffset": 156152,
      "componentType": 5126,
      "count": 7244,
      "max": [
        0.9589300155639648,
        0.9631100296974182
      ],
      "min": [
        0.0038900000508874655,
        0.0008200000156648457
      ],
      "type": "VEC2"
    },
    {
      "bufferView": 0,
      "byteOffset": 459264,
      "componentType": 5125,
      "count": 32256,
      "type": "SCALAR"
    },
    {
      "bufferView": 2,
      "byteOffset": 642312,
      "componentType": 5126,
      "count": 3068,
      "max": [
        4.016329765319824,
        0.5520700216293335,
        4.207429885864258
      ],
      "min": [
        -4.016329765319824,
        -0.5514299869537354,
        -0.784280002117157
      ],
      "type": "VEC3"
    },
    {
      "bufferView": 2,
      "byteOffset": 679128,
      "componentType": 5126,
      "count": 3068,
      "max": [
        0.9999998211860657,
        0.9999999403953552,
        0.9969720840454102
      ],
      "min": [
        -0.9999998211860657,
        -1.0,
        -0.9999968409538269
      ],
      "type": "VEC3"
    },
    {
      "bufferView": 1,
      "byteOffset": 214104,
      "componentType": 5126,
      "count": 3068,
      "max": [
        0.9344599843025208,
        0.9735900163650513
      ],
      "min": [
        0.04854999855160713,
        0.045510001480579376
      ],
      "type": "VEC2"
    },
    {
      "bufferView": 0,
      "byteOffset": 588288,
      "componentType": 5125,
      "count": 12576,
      "type": "SCALAR"
    }
  ],
  "asset": {
    "extras": {
      "author": "guntuy3 (https://sketchfab.com/guntuy3)",
      "license": "CC-BY-4.0 (http://creativecommons.org/licenses/by/4.0/)",
      "source": "https://sketchfab.com/3d-models/squidward-tentacles-c4a493ec23be4c2ba37e6bd71985c120",
      "title": "Squidward tentacles"
    },
    "generator": "Sketchfab-12.68.0",
    "version": "2.0"
  },
  "bufferViews": [
    {
      "buffer": 0,
      "byteLength": 638592,
      "name": "floatBufferViews",
      "target": 34963
    },
    {
      "buffer": 0,
      "byteLength": 238648,
      "byteOffset": 638592,
      "byteStride": 8,
      "name": "floatBufferViews",
      "target": 34962
    },
    {
      "buffer": 0,
      "byteLength": 715944,
      "byteOffset": 877240,
      "byteStride": 12,
      "name": "floatBufferViews",
      "target": 34962
    }
  ],
  "buffers": [
    {
      "byteLength": 1593184,
      "uri": "scene.bin"
    }
  ],
  "extensionsRequired": [
    "KHR_materials_pbrSpecularGlossiness"
  ],
  "extensionsUsed": [
    "KHR_materials_pbrSpecularGlossiness"
  ],
  "images": [
    {
      "uri": "textures/Hand_diffuse.png"
    },
    {
      "uri": "textures/Kaki_diffuse.png"
    },
    {
      "uri": "textures/Baju_diffuse.png"
    },
    {
      "uri": "textures/Mata_diffuse.png"
    },
    {
      "uri": "textures/HEad_diffuse.png"
    }
  ],
  "materials": [
    {
      "doubleSided": true,
      "extensions": {
        "KHR_materials_pbrSpecularGlossiness": {
          "diffuseFactor": [
            1.0,
            1.0,
            1.0,
            1.0
          ],
          "diffuseTexture": {
            "index": 0
          },
          "glossinessFactor": 0.0,
          "specularFactor": [
            1.0,
            1.0,
            1.0
          ]
        }
      },
      "name": "Hand"
    },
    {
      "doubleSided": true,
      "extensions": {
        "KHR_materials_pbrSpecularGlossiness": {
          "diffuseFactor": [
            1.0,
            1.0,
            1.0,
            1.0
          ],
          "diffuseTexture": {
            "index": 1
          },
          "glossinessFactor": 0.0,
          "specularFactor": [
            1.0,
            1.0,
            1.0
          ]
        }
      },
      "name": "Kaki"
    },
    {
      "doubleSided": true,
      "extensions": {
        "KHR_materials_pbrSpecularGlossiness": {
          "diffuseFactor": [
            1.0,
            1.0,
            1.0,
            1.0
          ],
          "diffuseTexture": {
            "index": 2
          },
          "glossinessFactor": 0.0,
          "specularFactor": [
            1.0,
            1.0,
            1.0
          ]
        }
      },
      "name": "Baju"
    },
    {
      "doubleSided": true,
      "extensions": {
        "KHR_materials_pbrSpecularGlossiness": {
          "diffuseFactor": [
            1.0,
            1.0,
            1.0,
            1.0
          ],
          "diffuseTexture": {
            "index": 3
          },
          "glossinessFactor": 0.5,
          "specularFactor": [
            1.0,
            1.0,
            1.0
          ]
        }
      },
      "name": "Mata"
    },
    {
      "doubleSided": true,
      "extensions": {
        "KHR_materials_pbrSpecularGlossiness": {
          "diffuseFactor": [
            1.0,
            1.0,
            1.0,
            1.0
          ],
          "diffuseTexture": {
            "index": 4
          },
          "glossinessFactor": 0.0,
          "specularFactor": [
            1.0,
            1.0,
            1.0
          ]
        }
      },
      "name": "HEad"
    }
  ],
  "meshes": [
    {
      "name": "Sphere_0",
      "primitives": [
        {
          "attributes": {
            "NORMAL": 1,
            "POSITION": 0,
            "TEXCOORD_0": 2
          },
          "indices": 3,
          "material": 3,
          "mode": 4
        }
      ]
    },
    {
      "name": "Sphere_1",
      "primitives": [
        {
          "attributes": {
            "NORMAL": 5,
            "POSITION": 4,
            "TEXCOORD_0": 6
          },
          "indices": 7,
          "material": 4,
          "mode": 4
        }
      ]
    },
    {
      "name": "Cube_0",
      "primitives": [
        {
          "attributes": {
            "NORMAL": 9,
            "POSITION": 8,
            "TEXCOORD_0": 10
          },
          "indices": 11,
          "material": 2,
          "mode": 4
        }
      ]
    },
    {
      "name": "Cube.001_0",
      "primitives": [
        {
          "attributes": {
            "NORMAL": 13,
            "POSITION": 12,
            "TEXCOORD_0": 14
          },
          "indices": 15,
          "material": 2,
          "mode": 4
        }
      ]
    },
    {
      "name": "Circle_0",
      "primitives": [
        {
          "attributes": {
            "NORMAL": 17,
            "POSITION": 16,
            "TEXCOORD_0": 18
          },
          "indices": 19,
          "material": 1,
          "mode": 4
        }
      ]
    },
    {
      "name": "Cube.002_0",
      "primitives": [
        {
          "attributes": {
            "NORMAL": 21,
            "POSITION": 20,
            "TEXCOORD_0": 22
          },
          "indices": 23,
          "material": 0,
          "mode": 4
        }
      ]
    }
  ],
  "nodes": [
    {
      "children": [
        1
      ],
      "matrix": [
        1.0,
        0.0,
        0.0,
        0.0,
        0.0,
        2.220446049250313e-16,
        -1.0,
        0.0,
        0.0,
        1.0,
        2.220446049250313e-16,
        0.0,
        0.0,
        0.0,
        0.0,
        1.0
      ],
      "name": "Sketchfab_model"
    },
    {
      "children": [
        2,
        5,
        7,
        9,
        11,
        13,
        15,
        17
      ],
      "name": "Root"
    },
    {
      "children": [
        3,
        4
      ],
      "matrix": [
        1.0,
        0.0,
        0.0,
        0.0,
        0.0,
        1.0,
        0.0,
        0.0,
        0.0,
        0.0,
        1.0,
        0.0,
        0.01984,
        -0.54332,
        9.19484,
        1.0
      ],
      "name": "Sphere"
    },
    {
      "mesh": 0,
      "name": "Sphere_0"
    },
    {
      "mesh": 1,
      "name": "Sphere_1"
    },
    {
      "children": [
        6
      ],
      "matrix": [
        1.0,
        0.0,
        0.0,
        0.0,
        0.0,
        1.0,
        0.0,
        0.0,
        0.0,
        0.0,
        1.0,
        0.0,
        0.01984,
        -0.90786,
        -2.1916499999999997,
        1.0
      ],
      "name": "Cube"
    },
    {
      "mesh": 2,
      "name": "Cube_0"
    },
    {
      "children": [
        8
      ],
      "matrix": [
        1.0,
        0.0,
        0.0,
        0.0,
        0.0,
        1.0,
        0.0,
        0.0,
        0.0,
        0.0,
        1.0,
        0.0,
        0.01984,
        -0.90786,
        -2.1916499999999997,
        1.0
      ],
      "name": "Cube.001"
    },
    {
      "mesh": 3,
      "name": "Cube.001_0"
    },
    {
      "children": [
        10
      ],
      "matrix": [
        1.0,
        0.0,
        0.0,
        0.0,
        0.0,
        1.0,
        0.0,
        0.0,
        0.0,
        0.0,
        1.0,
        0.0,
        0.01984,
        -0.99425,
        -7.0238499999999995,
        1.0
      ],
      "name": "Circle"
    },
    {
      "mesh": 4,
      "name": "Circle_0"
    },
    {
      "children": [
        12
      ],
      "matrix": [
        1.0,
        0.0,
        0.0,
        0.0,
        0.0,
        1.0,
        0.0,
        0.0,
        0.0,
        0.0,
        1.0,
        0.0,
        0.01984,
        -0.90786,
        -2.1916499999999997,
        1.0
      ],
      "name": "Cube.002"
    },
    {
      "mesh": 5,
      "name": "Cube.002_0"
    },
    {
      "children": [
        14
      ],
      "matrix": [
        0.8774900000000001,
        0.4796,
        0.0,
        0.0,
        -0.24259000000000003,
        0.4438500000000001,
        0.8626400000000002,
        0.0,
        0.41372000000000003,
        -0.7569600000000001,
        0.50582,
        0.0,
        37.042,
        -70.51703,
        8.59284,
        1.0
      ],
      "name": "Sun"
    },
    {
      "name": "Sun"
    },
    {
      "children": [
        16
      ],
      "matrix": [
        0.08530000000000001,
        -0.9963599999999999,
        0.0,
        0.0,
        0.50398,
        0.04314000000000001,
        0.8626400000000002,
        0.0,
        -0.8594900000000001,
        -0.07358,
        0.50582,
        0.0,
        -74.84352000000001,
        -48.48547,
        8.59284,
        1.0
      ],
      "name": "Sun.001"
    },
    {
      "name": "Sun.001"
    },
    {
      "children": [
        18
      ],
      "matrix": [
        -0.74926,
        -0.6622800000000001,
        0.0,
        0.0,
        0.33499000000000007,
        -0.37899000000000005,
        0.8626400000000002,
        0.0,
        -0.57131,
        0.6463400000000001,
        0.50582,
        0.0,
        -35.00853000000001,
        46.03702,
        39.13259000000001,
        1.0
      ],
      "name": "Sun.002"
    },
    {
      "name": "Sun.002"
    }
  ],
  "samplers": [
    {
      "magFilter": 9729,
      "minFilter": 9987,
      "wrapS": 10497,
      "wrapT": 10497
    }
  ],
  "scene": 0,
  "scenes": [
    {
      "name": "Sketchfab_Scene",
      "nodes": [
        0
      ]
    }
  ],
  "textures": [
    {
      "sampler": 0,
      "source": 0
    },
    {
      "sampler": 0,
      "source": 1
    },
    {
      "sampler": 0,
      "source": 2
    },
    {
      "sampler": 0,
      "source": 3
    },
    {
      "sampler": 0,
      "source": 4
    }
  ]
}
